<?xml version="1.0" encoding="us-ascii" standalone="no"?><svg xmlns="http://www.w3.org/2000/svg" xmlns:xlink="http://www.w3.org/1999/xlink" contentStyleType="text/css" height="689px" preserveAspectRatio="none" style="width:487px;height:689px;background:#FFFFFF;" version="1.1" viewBox="0 0 487 689" width="487px" zoomAndPan="magnify"><defs/><g><text fill="#000000" font-family="sans-serif" font-size="14" font-weight="bold" lengthAdjust="spacing" textLength="173" x="150" y="23.5352">SeqTrees Class Overview</text><!--class SequentialTreeSynthesizer--><g id="elem_SequentialTreeSynthesizer"><rect codeLine="3" fill="#F1F1F1" height="130.4414" id="SequentialTreeSynthesizer" rx="2.5" ry="2.5" style="stroke:#181818;stroke-width:0.5;" width="473" x="7" y="44.4883"/><ellipse cx="148.25" cy="60.4883" fill="#ADD1B2" rx="11" ry="11" style="stroke:#181818;stroke-width:1.0;"/><path d="M150.7231,66.6313 Q150.1421,66.9302 149.5029,67.0796 Q148.8638,67.229 148.1582,67.229 Q145.6514,67.229 144.3315,65.5771 Q143.0117,63.9253 143.0117,60.8042 Q143.0117,57.6748 144.3315,56.0229 Q145.6514,54.3711 148.1582,54.3711 Q148.8638,54.3711 149.5112,54.5205 Q150.1587,54.6699 150.7231,54.9688 L150.7231,57.6914 Q150.0923,57.1104 149.4988,56.8406 Q148.9053,56.5708 148.2744,56.5708 Q146.9297,56.5708 146.2449,57.6375 Q145.5601,58.7041 145.5601,60.8042 Q145.5601,62.896 146.2449,63.9626 Q146.9297,65.0293 148.2744,65.0293 Q148.9053,65.0293 149.4988,64.7595 Q150.0923,64.4897 150.7231,63.9087 Z " fill="#000000"/><text fill="#000000" font-family="sans-serif" font-size="14" lengthAdjust="spacing" textLength="182" x="168.75" y="65.7793">SequentialTreeSynthesizer</text><line style="stroke:#181818;stroke-width:0.5;" x1="8" x2="479" y1="76.4883" y2="76.4883"/><line style="stroke:#181818;stroke-width:0.5;" x1="8" x2="479" y1="84.4883" y2="84.4883"/><ellipse cx="18" cy="98.2324" fill="#84BE84" rx="3" ry="3" style="stroke:#038048;stroke-width:1.0;"/><text fill="#000000" font-family="sans-serif" font-size="14" lengthAdjust="spacing" textLength="95" x="27" y="102.0234">fit(X, y=None)</text><ellipse cx="18" cy="114.7207" fill="#84BE84" rx="3" ry="3" style="stroke:#038048;stroke-width:1.0;"/><text fill="#000000" font-family="sans-serif" font-size="14" lengthAdjust="spacing" textLength="447" x="27" y="118.5117">sample(n_samples=1, random_state=None, as_dataframe=None)</text><ellipse cx="18" cy="131.209" fill="#84BE84" rx="3" ry="3" style="stroke:#038048;stroke-width:1.0;"/><text fill="#000000" font-family="sans-serif" font-size="14" lengthAdjust="spacing" textLength="318" x="27" y="135">fit_sample(X, n_samples, random_state=None)</text><ellipse cx="18" cy="147.6973" fill="#84BE84" rx="3" ry="3" style="stroke:#038048;stroke-width:1.0;"/><text fill="#000000" font-family="sans-serif" font-size="14" lengthAdjust="spacing" textLength="138" x="27" y="151.4883">get_variable_order()</text><ellipse cx="18" cy="164.1855" fill="#84BE84" rx="3" ry="3" style="stroke:#038048;stroke-width:1.0;"/><text fill="#000000" font-family="sans-serif" font-size="14" lengthAdjust="spacing" textLength="66" x="27" y="167.9766">to_puml()</text></g><!--class ConditionalTree--><g id="elem_ConditionalTree"><rect codeLine="11" fill="#F1F1F1" height="80.9766" id="ConditionalTree" rx="2.5" ry="2.5" style="stroke:#181818;stroke-width:0.5;" width="215" x="56" y="251.9383"/><ellipse cx="103.75" cy="267.9383" fill="#ADD1B2" rx="11" ry="11" style="stroke:#181818;stroke-width:1.0;"/><path d="M106.2231,274.0813 Q105.6421,274.3802 105.0029,274.5296 Q104.3638,274.679 103.6582,274.679 Q101.1514,274.679 99.8315,273.0271 Q98.5117,271.3753 98.5117,268.2542 Q98.5117,265.1248 99.8315,263.4729 Q101.1514,261.8211 103.6582,261.8211 Q104.3638,261.8211 105.0112,261.9705 Q105.6587,262.1199 106.2231,262.4188 L106.2231,265.1414 Q105.5923,264.5604 104.9988,264.2906 Q104.4053,264.0208 103.7744,264.0208 Q102.4297,264.0208 101.7449,265.0875 Q101.0601,266.1541 101.0601,268.2542 Q101.0601,270.346 101.7449,271.4126 Q102.4297,272.4793 103.7744,272.4793 Q104.4053,272.4793 104.9988,272.2095 Q105.5923,271.9397 106.2231,271.3587 Z " fill="#000000"/><text fill="#000000" font-family="sans-serif" font-size="14" lengthAdjust="spacing" textLength="111" x="124.25" y="273.2293">ConditionalTree</text><line style="stroke:#181818;stroke-width:0.5;" x1="57" x2="270" y1="283.9383" y2="283.9383"/><line style="stroke:#181818;stroke-width:0.5;" x1="57" x2="270" y1="291.9383" y2="291.9383"/><ellipse cx="67" cy="305.6824" fill="#84BE84" rx="3" ry="3" style="stroke:#038048;stroke-width:1.0;"/><text fill="#000000" font-family="sans-serif" font-size="14" lengthAdjust="spacing" textLength="189" x="76" y="309.4734">fit(records, features, target)</text><ellipse cx="67" cy="322.1707" fill="#84BE84" rx="3" ry="3" style="stroke:#038048;stroke-width:1.0;"/><text fill="#000000" font-family="sans-serif" font-size="14" lengthAdjust="spacing" textLength="117" x="76" y="325.9617">sample(row, rng)</text></g><!--class TreeNode--><g id="elem_TreeNode"><rect codeLine="16" fill="#F1F1F1" height="113.9531" id="TreeNode" rx="2.5" ry="2.5" style="stroke:#181818;stroke-width:0.5;" width="106" x="151.5" y="409.9083"/><ellipse cx="169.65" cy="425.9083" fill="#ADD1B2" rx="11" ry="11" style="stroke:#181818;stroke-width:1.0;"/><path d="M172.1231,432.0513 Q171.5421,432.3502 170.9029,432.4996 Q170.2638,432.649 169.5582,432.649 Q167.0514,432.649 165.7315,430.9971 Q164.4117,429.3453 164.4117,426.2242 Q164.4117,423.0948 165.7315,421.4429 Q167.0514,419.7911 169.5582,419.7911 Q170.2638,419.7911 170.9112,419.9405 Q171.5587,420.0899 172.1231,420.3888 L172.1231,423.1114 Q171.4923,422.5304 170.8988,422.2606 Q170.3053,421.9908 169.6744,421.9908 Q168.3297,421.9908 167.6449,423.0575 Q166.9601,424.1241 166.9601,426.2242 Q166.9601,428.316 167.6449,429.3826 Q168.3297,430.4493 169.6744,430.4493 Q170.3053,430.4493 170.8988,430.1795 Q171.4923,429.9097 172.1231,429.3287 Z " fill="#000000"/><text fill="#000000" font-family="sans-serif" font-size="14" lengthAdjust="spacing" textLength="67" x="184.35" y="431.1993">TreeNode</text><line style="stroke:#181818;stroke-width:0.5;" x1="152.5" x2="256.5" y1="441.9083" y2="441.9083"/><ellipse cx="162.5" cy="455.6524" fill="none" rx="3" ry="3" style="stroke:#038048;stroke-width:1.0;"/><text fill="#000000" font-family="sans-serif" font-size="14" lengthAdjust="spacing" textLength="80" x="171.5" y="459.4434">distribution</text><ellipse cx="162.5" cy="472.1407" fill="none" rx="3" ry="3" style="stroke:#038048;stroke-width:1.0;"/><text fill="#000000" font-family="sans-serif" font-size="14" lengthAdjust="spacing" textLength="29" x="171.5" y="475.9317">split</text><ellipse cx="162.5" cy="488.629" fill="none" rx="3" ry="3" style="stroke:#038048;stroke-width:1.0;"/><text fill="#000000" font-family="sans-serif" font-size="14" lengthAdjust="spacing" textLength="22" x="171.5" y="492.42">left</text><ellipse cx="162.5" cy="505.1173" fill="none" rx="3" ry="3" style="stroke:#038048;stroke-width:1.0;"/><text fill="#000000" font-family="sans-serif" font-size="14" lengthAdjust="spacing" textLength="33" x="171.5" y="508.9083">right</text><line style="stroke:#181818;stroke-width:0.5;" x1="152.5" x2="256.5" y1="515.8614" y2="515.8614"/></g><!--class EmpiricalDistribution--><g id="elem_EmpiricalDistribution"><rect codeLine="23" fill="#F1F1F1" height="97.4648" id="EmpiricalDistribution" rx="2.5" ry="2.5" style="stroke:#181818;stroke-width:0.5;" width="225" x="151" y="584.8683"/><ellipse cx="188.05" cy="600.8683" fill="#ADD1B2" rx="11" ry="11" style="stroke:#181818;stroke-width:1.0;"/><path d="M190.5231,607.0113 Q189.9421,607.3102 189.3029,607.4596 Q188.6638,607.609 187.9582,607.609 Q185.4514,607.609 184.1315,605.9571 Q182.8117,604.3053 182.8117,601.1842 Q182.8117,598.0548 184.1315,596.4029 Q185.4514,594.7511 187.9582,594.7511 Q188.6638,594.7511 189.3112,594.9005 Q189.9587,595.0499 190.5231,595.3488 L190.5231,598.0714 Q189.8923,597.4904 189.2988,597.2206 Q188.7053,596.9508 188.0744,596.9508 Q186.7297,596.9508 186.0449,598.0175 Q185.3601,599.0841 185.3601,601.1842 Q185.3601,603.276 186.0449,604.3426 Q186.7297,605.4093 188.0744,605.4093 Q188.7053,605.4093 189.2988,605.1395 Q189.8923,604.8697 190.5231,604.2887 Z " fill="#000000"/><text fill="#000000" font-family="sans-serif" font-size="14" lengthAdjust="spacing" textLength="144" x="206.95" y="606.1593">EmpiricalDistribution</text><line style="stroke:#181818;stroke-width:0.5;" x1="152" x2="375" y1="616.8683" y2="616.8683"/><line style="stroke:#181818;stroke-width:0.5;" x1="152" x2="375" y1="624.8683" y2="624.8683"/><ellipse cx="162" cy="638.6124" fill="#84BE84" rx="3" ry="3" style="stroke:#038048;stroke-width:1.0;"/><text fill="#000000" font-family="sans-serif" font-size="14" lengthAdjust="spacing" textLength="83" x="171" y="642.4034">sample(rng)</text><ellipse cx="162" cy="655.1007" fill="#84BE84" rx="3" ry="3" style="stroke:#038048;stroke-width:1.0;"/><text fill="#000000" font-family="sans-serif" font-size="14" lengthAdjust="spacing" textLength="63" x="171" y="658.8917">entropy()</text><ellipse cx="162" cy="671.589" fill="#84BE84" rx="3" ry="3" style="stroke:#038048;stroke-width:1.0;"/><text fill="#000000" font-family="sans-serif" font-size="14" lengthAdjust="spacing" textLength="199" x="171" y="675.38">probability(value, alpha=1.0)</text></g><!--reverse link SequentialTreeSynthesizer to EmpiricalDistribution--><g id="link_SequentialTreeSynthesizer_EmpiricalDistribution"><path codeLine="29" d="M293.2266,186.0914 C298.0066,195.6514 296.75,194.9383 299.5,204.9383 C336.26,338.7483 300.48,504.2183 278.25,584.4583 " fill="none" id="SequentialTreeSynthesizer-backto-EmpiricalDistribution" style="stroke:#181818;stroke-width:1.0;"/><polygon fill="none" points="287.86,175.3583,286.9656,182.5137,293.2266,186.0914,294.121,178.936,287.86,175.3583" style="stroke:#181818;stroke-width:1.0;"/><text fill="#000000" font-family="sans-serif" font-size="13" lengthAdjust="spacing" textLength="79" x="315.7" y="376.4766">first variable</text><text fill="#000000" font-family="sans-serif" font-size="13" lengthAdjust="spacing" textLength="8" x="284.0221" y="195.4862">1</text><text fill="#000000" font-family="sans-serif" font-size="13" lengthAdjust="spacing" textLength="8" x="271.7617" y="574.0831">1</text></g><!--reverse link SequentialTreeSynthesizer to ConditionalTree--><g id="link_SequentialTreeSynthesizer_ConditionalTree"><path codeLine="30" d="M210.0995,186.1599 C198.8295,211.5999 191.11,229.0583 181.2,251.4383 " fill="none" id="SequentialTreeSynthesizer-backto-ConditionalTree" style="stroke:#181818;stroke-width:1.0;"/><polygon fill="none" points="214.96,175.1883,208.8726,179.0539,210.0995,186.1599,216.187,182.2942,214.96,175.1883" style="stroke:#181818;stroke-width:1.0;"/><text fill="#000000" font-family="sans-serif" font-size="13" lengthAdjust="spacing" textLength="88" x="202.1" y="218.5066">later variables</text><text fill="#000000" font-family="sans-serif" font-size="13" lengthAdjust="spacing" textLength="8" x="203.6043" y="195.2986">1</text><text fill="#000000" font-family="sans-serif" font-size="13" lengthAdjust="spacing" textLength="22" x="160.2678" y="241.3036">0..*</text></g><!--reverse link ConditionalTree to TreeNode--><g id="link_ConditionalTree_TreeNode"><path codeLine="31" d="M175.6857,344.6628 C181.0757,367.3328 185.15,384.4983 191.1,409.5083 " fill="none" id="ConditionalTree-backto-TreeNode" style="stroke:#181818;stroke-width:1.0;"/><polygon fill="none" points="172.91,332.9883,170.4063,339.7508,175.6857,344.6628,178.1894,337.9003,172.91,332.9883" style="stroke:#181818;stroke-width:1.0;"/><text fill="#000000" font-family="sans-serif" font-size="13" lengthAdjust="spacing" textLength="8" x="165.806" y="353.5426">1</text><text fill="#000000" font-family="sans-serif" font-size="13" lengthAdjust="spacing" textLength="22" x="166.1263" y="399.1887">1..*</text></g><!--reverse link TreeNode to EmpiricalDistribution--><g id="link_TreeNode_EmpiricalDistribution"><path codeLine="32" d="M228.6837,535.4065 C235.7237,555.0765 239.52,565.6583 246.3,584.5883 " fill="none" id="TreeNode-backto-EmpiricalDistribution" style="stroke:#181818;stroke-width:1.0;"/><polygon fill="none" points="224.64,524.1083,222.8958,531.1053,228.6837,535.4065,230.4279,528.4095,224.64,524.1083" style="stroke:#181818;stroke-width:1.0;"/><text fill="#000000" font-family="sans-serif" font-size="13" lengthAdjust="spacing" textLength="8" x="218.6071" y="544.5837">1</text><text fill="#000000" font-family="sans-serif" font-size="13" lengthAdjust="spacing" textLength="8" x="235.3188" y="574.2314">1</text></g><!--SRC=[ZP4_Ry8m4CNtV0gBAMq1mOh4HBlIWGxTeWkvm4cEdPulGMdLxrxR8GIrLEtaV_T-x-vPI3Ig7RwzCABQQ71EFRV8BU4fIVRnx5yRD4AWGz6kCt94H-_8wYDHwg4aIL-dgbjlhS6xSEEWgZMc9kitRhsSAWPJs2fp0eAnSgh0PGK8b0mLZcAFE-i2zSAuGOZb1vIi1IR8DMQM2-GqtelDwgRI_l0vpB6nfY0XQ_f1nkuPzrxfBKe4QJYO2R0dNq_3zkHxC8ShOA1iRN4c5UI4AM-2GzJLcYHiD9PnPJeSPLG_LJKnxK4_NWbxr60PtFpHXy-sxlh1QhOvvEJPNTg2RaAGkZx2UZbVnDv-_wx9SgBiR1RNs-uhLH8xKKEY_u4jvlFxoOzmLqhxV-8BoINVAyPk8c08Cxca-cUxNm00]--></g></svg>