<?xml version="1.0" encoding="us-ascii" standalone="no"?><svg xmlns="http://www.w3.org/2000/svg" xmlns:xlink="http://www.w3.org/1999/xlink" contentStyleType="text/css" height="1000px" preserveAspectRatio="none" style="width:632px;height:1000px;background:#FFFFFF;" version="1.1" viewBox="0 0 632 1000" width="632px" zoomAndPan="magnify"><defs/><g><text fill="#000000" font-family="sans-serif" font-size="14" font-weight="bold" lengthAdjust="spacing" textLength="249" x="190" y="33.5352">SeqTree Sequential Data Synthesis</text><ellipse cx="251.375" cy="57.4883" fill="#222222" rx="10" ry="10" style="stroke:#222222;stroke-width:1.0;"/><rect fill="#F1F1F1" height="34.1328" rx="12.5" ry="12.5" style="stroke:#181818;stroke-width:0.5;" width="223" x="139.875" y="87.4883"/><text fill="#000000" font-family="sans-serif" font-size="12" lengthAdjust="spacing" textLength="203" x="149.875" y="109.0898">Receive preprocessed tabular data</text><polygon fill="#F1F1F1" points="170.375,141.6211,332.375,141.6211,344.375,153.6211,332.375,165.6211,170.375,165.6211,158.375,153.6211,170.375,141.6211" style="stroke:#181818;stroke-width:0.5;"/><text fill="#000000" font-family="sans-serif" font-size="11" lengthAdjust="spacing" textLength="162" x="170.375" y="157.7783">User provided variable_order?</text><text fill="#000000" font-family="sans-serif" font-size="11" lengthAdjust="spacing" textLength="18" x="140.375" y="151.3008">yes</text><text fill="#000000" font-family="sans-serif" font-size="11" lengthAdjust="spacing" textLength="14" x="344.375" y="151.3008">no</text><rect fill="#F1F1F1" height="34.1328" rx="12.5" ry="12.5" style="stroke:#181818;stroke-width:0.5;" width="131" x="11" y="175.6211"/><text fill="#000000" font-family="sans-serif" font-size="12" lengthAdjust="spacing" textLength="111" x="21" y="197.2227">Use supplied order</text><polygon fill="#F1F1F1" points="365.75,175.6211,486.75,175.6211,498.75,187.6211,486.75,199.6211,365.75,199.6211,353.75,187.6211,365.75,175.6211" style="stroke:#181818;stroke-width:0.5;"/><text fill="#000000" font-family="sans-serif" font-size="11" lengthAdjust="spacing" textLength="121" x="365.75" y="191.7783">optimize_order=True?</text><text fill="#000000" font-family="sans-serif" font-size="11" lengthAdjust="spacing" textLength="18" x="335.75" y="185.3008">yes</text><text fill="#000000" font-family="sans-serif" font-size="11" lengthAdjust="spacing" textLength="14" x="498.75" y="185.3008">no</text><rect fill="#F1F1F1" height="34.1328" rx="12.5" ry="12.5" style="stroke:#181818;stroke-width:0.5;" width="274" x="172" y="209.6211"/><text fill="#000000" font-family="sans-serif" font-size="12" lengthAdjust="spacing" textLength="254" x="182" y="231.2227">Choose greedy order by conditional entropy</text><rect fill="#F1F1F1" height="34.1328" rx="12.5" ry="12.5" style="stroke:#181818;stroke-width:0.5;" width="155" x="466" y="209.6211"/><text fill="#000000" font-family="sans-serif" font-size="12" lengthAdjust="spacing" textLength="135" x="476" y="231.2227">Use input column order</text><polygon fill="#F1F1F1" points="426.25,249.7539,438.25,261.7539,426.25,273.7539,414.25,261.7539,426.25,249.7539" style="stroke:#181818;stroke-width:0.5;"/><polygon fill="#F1F1F1" points="251.375,279.7539,263.375,291.7539,251.375,303.7539,239.375,291.7539,251.375,279.7539" style="stroke:#181818;stroke-width:0.5;"/><rect fill="#F1F1F1" height="34.1328" rx="12.5" ry="12.5" style="stroke:#181818;stroke-width:0.5;" width="240" x="131.375" y="323.7539"/><text fill="#000000" font-family="sans-serif" font-size="12" lengthAdjust="spacing" textLength="220" x="141.375" y="345.3555">Fit empirical marginal for first variable</text><rect fill="#F1F1F1" height="34.1328" rx="12.5" ry="12.5" style="stroke:#181818;stroke-width:0.5;" width="225" x="138.875" y="434.0215"/><text fill="#000000" font-family="sans-serif" font-size="12" lengthAdjust="spacing" textLength="205" x="148.875" y="455.623">Fit conditional tree for next variable</text><rect fill="#F1F1F1" height="34.1328" rx="12.5" ry="12.5" style="stroke:#181818;stroke-width:0.5;" width="230" x="136.375" y="488.1543"/><text fill="#000000" font-family="sans-serif" font-size="12" lengthAdjust="spacing" textLength="210" x="146.375" y="509.7559">Use previous variables as predictors</text><rect fill="#F1F1F1" height="34.1328" rx="12.5" ry="12.5" style="stroke:#181818;stroke-width:0.5;" width="283" x="109.875" y="542.2871"/><text fill="#000000" font-family="sans-serif" font-size="12" lengthAdjust="spacing" textLength="263" x="119.875" y="563.8887">Store empirical target distribution in each leaf</text><polygon fill="#F1F1F1" points="186.875,377.8867,315.875,377.8867,327.875,389.8867,315.875,401.8867,186.875,401.8867,174.875,389.8867,186.875,377.8867" style="stroke:#181818;stroke-width:0.5;"/><text fill="#000000" font-family="sans-serif" font-size="11" lengthAdjust="spacing" textLength="18" x="255.375" y="412.5215">yes</text><text fill="#000000" font-family="sans-serif" font-size="11" lengthAdjust="spacing" textLength="129" x="186.875" y="394.0439">More variables in order?</text><text fill="#000000" font-family="sans-serif" font-size="11" lengthAdjust="spacing" textLength="14" x="160.875" y="387.5664">no</text><rect fill="#F1F1F1" height="34.1328" rx="12.5" ry="12.5" style="stroke:#181818;stroke-width:0.5;" width="223" x="139.875" y="618.4199"/><text fill="#000000" font-family="sans-serif" font-size="12" lengthAdjust="spacing" textLength="203" x="149.875" y="640.0215">Sample first variable from marginal</text><rect fill="#F1F1F1" height="34.1328" rx="12.5" ry="12.5" style="stroke:#181818;stroke-width:0.5;" width="289" x="106.875" y="728.6875"/><text fill="#000000" font-family="sans-serif" font-size="12" lengthAdjust="spacing" textLength="269" x="116.875" y="750.2891">Route partial row through next conditional tree</text><rect fill="#F1F1F1" height="34.1328" rx="12.5" ry="12.5" style="stroke:#181818;stroke-width:0.5;" width="248" x="127.375" y="782.8203"/><text fill="#000000" font-family="sans-serif" font-size="12" lengthAdjust="spacing" textLength="228" x="137.375" y="804.4219">Sample next variable from reached leaf</text><rect fill="#F1F1F1" height="34.1328" rx="12.5" ry="12.5" style="stroke:#181818;stroke-width:0.5;" width="203" x="149.875" y="836.9531"/><text fill="#000000" font-family="sans-serif" font-size="12" lengthAdjust="spacing" textLength="183" x="159.875" y="858.5547">Append generated value to row</text><polygon fill="#F1F1F1" points="172.875,672.5527,329.875,672.5527,341.875,684.5527,329.875,696.5527,172.875,696.5527,160.875,684.5527,172.875,672.5527" style="stroke:#181818;stroke-width:0.5;"/><text fill="#000000" font-family="sans-serif" font-size="11" lengthAdjust="spacing" textLength="18" x="255.375" y="707.1875">yes</text><text fill="#000000" font-family="sans-serif" font-size="11" lengthAdjust="spacing" textLength="157" x="172.875" y="688.71">More variables to synthesize?</text><text fill="#000000" font-family="sans-serif" font-size="11" lengthAdjust="spacing" textLength="14" x="146.875" y="682.2324">no</text><rect fill="#F1F1F1" height="34.1328" rx="12.5" ry="12.5" style="stroke:#181818;stroke-width:0.5;" width="145" x="178.875" y="913.0859"/><text fill="#000000" font-family="sans-serif" font-size="12" lengthAdjust="spacing" textLength="125" x="188.875" y="934.6875">Return synthetic table</text><ellipse cx="251.375" cy="978.2188" fill="none" rx="11" ry="11" style="stroke:#222222;stroke-width:1.0;"/><ellipse cx="251.375" cy="978.2188" fill="#222222" rx="6" ry="6" style="stroke:#222222;stroke-width:1.0;"/><line style="stroke:#181818;stroke-width:1.0;" x1="251.375" x2="251.375" y1="67.4883" y2="87.4883"/><polygon fill="#181818" points="247.375,77.4883,251.375,87.4883,255.375,77.4883,251.375,81.4883" style="stroke:#181818;stroke-width:1.0;"/><line style="stroke:#181818;stroke-width:1.0;" x1="353.75" x2="309" y1="187.6211" y2="187.6211"/><line style="stroke:#181818;stroke-width:1.0;" x1="309" x2="309" y1="187.6211" y2="209.6211"/><polygon fill="#181818" points="305,199.6211,309,209.6211,313,199.6211,309,203.6211" style="stroke:#181818;stroke-width:1.0;"/><line style="stroke:#181818;stroke-width:1.0;" x1="498.75" x2="543.5" y1="187.6211" y2="187.6211"/><line style="stroke:#181818;stroke-width:1.0;" x1="543.5" x2="543.5" y1="187.6211" y2="209.6211"/><polygon fill="#181818" points="539.5,199.6211,543.5,209.6211,547.5,199.6211,543.5,203.6211" style="stroke:#181818;stroke-width:1.0;"/><line style="stroke:#181818;stroke-width:1.0;" x1="309" x2="309" y1="243.7539" y2="261.7539"/><line style="stroke:#181818;stroke-width:1.0;" x1="309" x2="414.25" y1="261.7539" y2="261.7539"/><polygon fill="#181818" points="404.25,257.7539,414.25,261.7539,404.25,265.7539,408.25,261.7539" style="stroke:#181818;stroke-width:1.0;"/><line style="stroke:#181818;stroke-width:1.0;" x1="543.5" x2="543.5" y1="243.7539" y2="261.7539"/><line style="stroke:#181818;stroke-width:1.0;" x1="543.5" x2="438.25" y1="261.7539" y2="261.7539"/><polygon fill="#181818" points="448.25,257.7539,438.25,261.7539,448.25,265.7539,444.25,261.7539" style="stroke:#181818;stroke-width:1.0;"/><line style="stroke:#181818;stroke-width:1.0;" x1="158.375" x2="76.5" y1="153.6211" y2="153.6211"/><line style="stroke:#181818;stroke-width:1.0;" x1="76.5" x2="76.5" y1="153.6211" y2="175.6211"/><polygon fill="#181818" points="72.5,165.6211,76.5,175.6211,80.5,165.6211,76.5,169.6211" style="stroke:#181818;stroke-width:1.0;"/><line style="stroke:#181818;stroke-width:1.0;" x1="344.375" x2="426.25" y1="153.6211" y2="153.6211"/><line style="stroke:#181818;stroke-width:1.0;" x1="426.25" x2="426.25" y1="153.6211" y2="175.6211"/><polygon fill="#181818" points="422.25,165.6211,426.25,175.6211,430.25,165.6211,426.25,169.6211" style="stroke:#181818;stroke-width:1.0;"/><line style="stroke:#181818;stroke-width:1.0;" x1="76.5" x2="76.5" y1="209.7539" y2="291.7539"/><line style="stroke:#181818;stroke-width:1.0;" x1="76.5" x2="239.375" y1="291.7539" y2="291.7539"/><polygon fill="#181818" points="229.375,287.7539,239.375,291.7539,229.375,295.7539,233.375,291.7539" style="stroke:#181818;stroke-width:1.0;"/><line style="stroke:#181818;stroke-width:1.0;" x1="426.25" x2="426.25" y1="273.7539" y2="291.7539"/><line style="stroke:#181818;stroke-width:1.0;" x1="426.25" x2="263.375" y1="291.7539" y2="291.7539"/><polygon fill="#181818" points="273.375,287.7539,263.375,291.7539,273.375,295.7539,269.375,291.7539" style="stroke:#181818;stroke-width:1.0;"/><line style="stroke:#181818;stroke-width:1.0;" x1="251.375" x2="251.375" y1="121.6211" y2="141.6211"/><polygon fill="#181818" points="247.375,131.6211,251.375,141.6211,255.375,131.6211,251.375,135.6211" style="stroke:#181818;stroke-width:1.0;"/><line style="stroke:#181818;stroke-width:1.0;" x1="251.375" x2="251.375" y1="303.7539" y2="323.7539"/><polygon fill="#181818" points="247.375,313.7539,251.375,323.7539,255.375,313.7539,251.375,317.7539" style="stroke:#181818;stroke-width:1.0;"/><line style="stroke:#181818;stroke-width:1.0;" x1="251.375" x2="251.375" y1="468.1543" y2="488.1543"/><polygon fill="#181818" points="247.375,478.1543,251.375,488.1543,255.375,478.1543,251.375,482.1543" style="stroke:#181818;stroke-width:1.0;"/><line style="stroke:#181818;stroke-width:1.0;" x1="251.375" x2="251.375" y1="522.2871" y2="542.2871"/><polygon fill="#181818" points="247.375,532.2871,251.375,542.2871,255.375,532.2871,251.375,536.2871" style="stroke:#181818;stroke-width:1.0;"/><line style="stroke:#181818;stroke-width:1.0;" x1="251.375" x2="251.375" y1="401.8867" y2="434.0215"/><polygon fill="#181818" points="247.375,424.0215,251.375,434.0215,255.375,424.0215,251.375,428.0215" style="stroke:#181818;stroke-width:1.0;"/><line style="stroke:#181818;stroke-width:1.0;" x1="251.375" x2="251.375" y1="576.4199" y2="586.4199"/><line style="stroke:#181818;stroke-width:1.0;" x1="251.375" x2="404.875" y1="586.4199" y2="586.4199"/><polygon fill="#181818" points="400.875,496.7432,404.875,486.7432,408.875,496.7432,404.875,492.7432" style="stroke:#181818;stroke-width:1.0;"/><line style="stroke:#181818;stroke-width:1.0;" x1="404.875" x2="404.875" y1="389.8867" y2="586.4199"/><line style="stroke:#181818;stroke-width:1.0;" x1="404.875" x2="327.875" y1="389.8867" y2="389.8867"/><polygon fill="#181818" points="337.875,385.8867,327.875,389.8867,337.875,393.8867,333.875,389.8867" style="stroke:#181818;stroke-width:1.0;"/><line style="stroke:#181818;stroke-width:1.0;" x1="174.875" x2="97.875" y1="389.8867" y2="389.8867"/><polygon fill="#181818" points="93.875,482.7432,97.875,492.7432,101.875,482.7432,97.875,486.7432" style="stroke:#181818;stroke-width:1.0;"/><line style="stroke:#181818;stroke-width:1.0;" x1="97.875" x2="97.875" y1="389.8867" y2="598.4199"/><line style="stroke:#181818;stroke-width:1.0;" x1="97.875" x2="251.375" y1="598.4199" y2="598.4199"/><line style="stroke:#181818;stroke-width:1.0;" x1="251.375" x2="251.375" y1="598.4199" y2="618.4199"/><polygon fill="#181818" points="247.375,608.4199,251.375,618.4199,255.375,608.4199,251.375,612.4199" style="stroke:#181818;stroke-width:1.0;"/><line style="stroke:#181818;stroke-width:1.0;" x1="251.375" x2="251.375" y1="357.8867" y2="377.8867"/><polygon fill="#181818" points="247.375,367.8867,251.375,377.8867,255.375,367.8867,251.375,371.8867" style="stroke:#181818;stroke-width:1.0;"/><line style="stroke:#181818;stroke-width:1.0;" x1="251.375" x2="251.375" y1="762.8203" y2="782.8203"/><polygon fill="#181818" points="247.375,772.8203,251.375,782.8203,255.375,772.8203,251.375,776.8203" style="stroke:#181818;stroke-width:1.0;"/><line style="stroke:#181818;stroke-width:1.0;" x1="251.375" x2="251.375" y1="816.9531" y2="836.9531"/><polygon fill="#181818" points="247.375,826.9531,251.375,836.9531,255.375,826.9531,251.375,830.9531" style="stroke:#181818;stroke-width:1.0;"/><line style="stroke:#181818;stroke-width:1.0;" x1="251.375" x2="251.375" y1="696.5527" y2="728.6875"/><polygon fill="#181818" points="247.375,718.6875,251.375,728.6875,255.375,718.6875,251.375,722.6875" style="stroke:#181818;stroke-width:1.0;"/><line style="stroke:#181818;stroke-width:1.0;" x1="251.375" x2="251.375" y1="871.0859" y2="881.0859"/><line style="stroke:#181818;stroke-width:1.0;" x1="251.375" x2="407.875" y1="881.0859" y2="881.0859"/><polygon fill="#181818" points="403.875,791.4092,407.875,781.4092,411.875,791.4092,407.875,787.4092" style="stroke:#181818;stroke-width:1.0;"/><line style="stroke:#181818;stroke-width:1.0;" x1="407.875" x2="407.875" y1="684.5527" y2="881.0859"/><line style="stroke:#181818;stroke-width:1.0;" x1="407.875" x2="341.875" y1="684.5527" y2="684.5527"/><polygon fill="#181818" points="351.875,680.5527,341.875,684.5527,351.875,688.5527,347.875,684.5527" style="stroke:#181818;stroke-width:1.0;"/><line style="stroke:#181818;stroke-width:1.0;" x1="160.875" x2="94.875" y1="684.5527" y2="684.5527"/><polygon fill="#181818" points="90.875,777.4092,94.875,787.4092,98.875,777.4092,94.875,781.4092" style="stroke:#181818;stroke-width:1.0;"/><line style="stroke:#181818;stroke-width:1.0;" x1="94.875" x2="94.875" y1="684.5527" y2="893.0859"/><line style="stroke:#181818;stroke-width:1.0;" x1="94.875" x2="251.375" y1="893.0859" y2="893.0859"/><line style="stroke:#181818;stroke-width:1.0;" x1="251.375" x2="251.375" y1="893.0859" y2="913.0859"/><polygon fill="#181818" points="247.375,903.0859,251.375,913.0859,255.375,903.0859,251.375,907.0859" style="stroke:#181818;stroke-width:1.0;"/><line style="stroke:#181818;stroke-width:1.0;" x1="251.375" x2="251.375" y1="652.5527" y2="672.5527"/><polygon fill="#181818" points="247.375,662.5527,251.375,672.5527,255.375,662.5527,251.375,666.5527" style="stroke:#181818;stroke-width:1.0;"/><line style="stroke:#181818;stroke-width:1.0;" x1="251.375" x2="251.375" y1="947.2188" y2="967.2188"/><polygon fill="#181818" points="247.375,957.2188,251.375,967.2188,255.375,957.2188,251.375,961.2188" style="stroke:#181818;stroke-width:1.0;"/><!--SRC=[TPB1JiCm38RlUGeVnokiGWY1k75XuuoorcqjfN5md45vUforZ369IwkcVtx_dsqb3GWxVDyBdju5ev8FyEZLmswEEcAcx5nMB-gsBzWY7H6IO19kCMViGFsX12_GsPt6KG-RrunY6ZvIP_-FNiWV0hwnT2XtDs2c4JOpvXi7i3Knv99I8DEU98t3O8URo5LG3JafJVIrMjpkfU2rZpazZCnsRp2MRbwiu313ox4Z9Ox6PNZ2QMximcMDDGR5LDJqeKpn9ue9xNhlbgVRFf42Jec4MlERl0nKZNiMw4codd4Rzp6ITNVpp8Bdqsn5uASHb7_RK7qlasgTI7MD-7bfkaQr2Ho9IxumzhcUTjGgIpu9TrfB_wQr8Gweq55MeKEfbMeSzEq80NtVLCerTMsCs-xybEphBndqmjCP_JzEPSZh0dtX5UmB5pK6swcwRC8VDalXCemBxNKV5fWbofzsB4ca0jZoB0WclK_9G630YEBrj8AXO4rafQuXRQcrI5p3AhLreMkditBw1W00]--></g></svg>